<svg xmlns="http://www.w3.org/2000/svg" width="30" height="30" viewBox="0 0 30 30">
  <metadata><?xpacket begin="﻿" id="W5M0MpCehiHzreSzNTczkc9d"?>
<x:xmpmeta xmlns:x="adobe:ns:meta/" x:xmptk="Adobe XMP Core 5.6-c138 79.159824, 2016/09/14-01:09:01        ">
   <rdf:RDF xmlns:rdf="http://www.w3.org/1999/02/22-rdf-syntax-ns#">
      <rdf:Description rdf:about=""/>
   </rdf:RDF>
</x:xmpmeta>
                                                                                                    
                                                                                                    
                                                                                                    
                                                                                                    
                                                                                                    
                                                                                                    
                                                                                                    
                                                                                                    
                                                                                                    
                                                                                                    
                                                                                                    
                                                                                                    
                                                                                                    
                                                                                                    
                                                                                                    
                                                                                                    
                                                                                                    
                                                                                                    
                                                                                                    
                                                                                                    
                           
<?xpacket end="w"?></metadata>
<defs>
    <style>
      .cls-1 {
        fill-rule: evenodd;
      }
    </style>
  </defs>
  <path id="我是顾问" class="cls-1" d="M5762.69,597c-3.77-.034-7.55-0.023-11.33-0.023q-7.965,0-15.92.016a1.265,1.265,0,0,1-1.14-.478,1.782,1.782,0,0,1-.23-1.507c0.01-.052.03-0.1,0.04-0.155,0.04-.574.08-1.15,0.13-1.722,0.05-.49.13-0.976,0.2-1.463a0.226,0.226,0,0,1,.01-0.081,14.029,14.029,0,0,1,.14-1.72,3.4,3.4,0,0,1,.39-1.636,4.916,4.916,0,0,1,1.34-1.245,13.721,13.721,0,0,1,2.56-1.11c0.7-.262,1.37-0.554,2.06-0.826,0.58-.229,1.16-0.458,1.74-0.672a0.443,0.443,0,0,1,.58.362c0.08,0.359.2,0.709,0.3,1.066,0.09,0.324.16,0.651,0.25,0.976,0.1,0.355.21,0.708,0.31,1.063,0.08,0.315.16,0.633,0.25,0.948l0.42,1.5c0.08,0.314.16,0.631,0.25,0.945,0.1,0.365.21,0.727,0.3,1.093,0.09,0.324.17,0.651,0.26,0.975,0.09,0.356.2,0.708,0.3,1.064,0.09,0.324.17,0.65,0.25,0.975,0.12,0.453.23,0.906,0.36,1.357a0.58,0.58,0,0,0,.19.162c0.04-.461.08-0.863,0.13-1.262,0.1-.69.21-1.377,0.31-2.067,0.05-.346.08-0.694,0.12-1.041,0.07-.532.15-1.063,0.21-1.595q0.075-.465.12-0.932c0.05-.465.08-0.931,0.13-1.395,0.03-.249.08-0.494,0.11-0.743a3.814,3.814,0,0,0-.3-1.448,3.077,3.077,0,0,1-.13-0.51,0.235,0.235,0,0,1,.15-0.175c1-.011,1.99-0.008,2.98-0.009,0.15,0,.2.035,0.15,0.2-0.12.334-.2,0.676-0.3,1.015-0.03.135-.08,0.269-0.1,0.407a3.945,3.945,0,0,0,.08,1.411,8.606,8.606,0,0,1,.13,1.013c0.05,0.492.07,0.986,0.13,1.476,0.09,0.718.21,1.433,0.31,2.149,0.04,0.319.08,0.639,0.11,0.96,0.05,0.483.09,0.967,0.13,1.449q0.045,0.441.12,0.879a0.724,0.724,0,0,0,.17.2c0.14-.531.26-0.989,0.38-1.445s0.28-.925.41-1.39c0.09-.324.17-0.652,0.26-0.977,0.09-.355.2-0.707,0.3-1.063,0.08-.323.16-0.649,0.25-0.972,0.1-.348.2-0.693,0.3-1.04,0.09-.323.17-0.647,0.26-0.97l0.3-1.091c0.09-.333.17-0.669,0.26-1s0.2-.69.3-1.036c0.08-.315.16-0.632,0.25-0.948a0.853,0.853,0,0,1,.14-0.418,0.562,0.562,0,0,1,.46-0.108c0.6,0.213,1.18.475,1.78,0.707s1.23,0.459,1.84.693c0.49,0.185.98,0.374,1.46,0.568a7.739,7.739,0,0,1,1.77.941,3.119,3.119,0,0,1,1.1,1.354,2.621,2.621,0,0,1,.12.795c0.05,0.492.08,0.986,0.13,1.477,0.06,0.58.14,1.157,0.21,1.735v0.081c0.05,0.584.09,1.167,0.14,1.75,0.03,0.4.06,0.806,0.11,1.206A1.31,1.31,0,0,1,5762.69,597Zm-7.06-19.792a7.844,7.844,0,0,1-.75,1.855,8.456,8.456,0,0,1-2.15,2.6,5.95,5.95,0,0,1-1.96,1.076,5.239,5.239,0,0,1-1.96.305,5.949,5.949,0,0,1-2.99-1.021,6.958,6.958,0,0,1-2-1.99,14.885,14.885,0,0,1-.99-1.733,11.256,11.256,0,0,1-.56-1.609,5.934,5.934,0,0,1-.13-0.846c-0.05-.392-0.09-0.785-0.15-1.329,0.1-.574.23-1.285,0.37-1.992a6.448,6.448,0,0,1,1.01-2.318,7.078,7.078,0,0,1,2.7-2.47,5.116,5.116,0,0,1,1.62-.563,9.387,9.387,0,0,1,1.27-.176,6.4,6.4,0,0,1,1.33.158,6.845,6.845,0,0,1,1.21.355,6.7,6.7,0,0,1,2.71,2.022,8.167,8.167,0,0,1,1.27,2.153,8.349,8.349,0,0,1,.37,1.4,5.757,5.757,0,0,1,.18,1.3,13.453,13.453,0,0,1-.17,1.788C5755.81,576.523,5755.71,576.864,5755.63,577.208Z" transform="translate(-5734 -567)"/>
</svg>
